<?xml version="1.0" standalone="no"?>
<!DOCTYPE svg PUBLIC "-//W3C//DTD SVG 20010904//EN"
 "http://www.w3.org/TR/2001/REC-SVG-20010904/DTD/svg10.dtd">
<svg version="1.0" xmlns="http://www.w3.org/2000/svg"
 width="3535.000000pt" height="1587.000000pt" viewBox="0 0 3535.000000 1587.000000"
 preserveAspectRatio="xMidYMid meet">

<g transform="translate(0.000000,1587.000000) scale(0.100000,-0.100000)"
fill="#000000" stroke="none">
<path d="M8380 15223 c-23 -59 -44 -121 -47 -138 -4 -16 -39 -117 -80 -222
-40 -106 -73 -198 -73 -205 0 -12 -60 -181 -115 -323 -12 -33 -37 -104 -54
-159 -17 -54 -40 -119 -50 -145 -35 -87 -72 -188 -75 -208 -5 -23 -49 -147
-106 -298 -23 -60 -43 -119 -45 -130 -1 -11 -35 -105 -74 -208 -39 -103 -73
-198 -75 -210 -4 -21 -64 -189 -111 -312 -13 -33 -39 -107 -58 -165 -19 -58
-49 -143 -66 -190 -18 -47 -52 -143 -76 -215 -24 -71 -62 -179 -85 -239 -23
-60 -44 -116 -45 -125 -2 -9 -4 -16 -5 -16 -1 0 -3 -9 -5 -20 -2 -10 -10 -35
-18 -55 -30 -72 -98 -258 -126 -345 -16 -49 -54 -157 -84 -240 -30 -82 -68
-190 -85 -240 -17 -49 -44 -128 -62 -175 -17 -47 -51 -143 -75 -215 -24 -71
-58 -166 -75 -210 -41 -104 -71 -186 -75 -206 -5 -24 -27 -87 -90 -254 -31
-82 -57 -157 -59 -165 -2 -8 -8 -28 -14 -43 -7 -16 -12 -32 -12 -37 0 -4 -25
-75 -56 -157 -31 -81 -58 -159 -60 -172 -3 -14 -20 -66 -39 -115 -18 -50 -36
-102 -40 -116 -4 -14 -11 -29 -15 -35 -4 -5 -17 -41 -29 -80 -13 -38 -25 -77
-28 -85 -3 -8 -7 -19 -8 -25 -3 -10 -43 -119 -95 -256 -16 -41 -39 -106 -50
-145 -12 -38 -32 -96 -45 -129 -50 -132 -114 -312 -121 -340 -4 -16 -34 -101
-67 -189 -32 -87 -60 -163 -62 -170 -1 -6 -5 -18 -8 -26 -3 -8 -10 -31 -16
-50 -5 -19 -35 -102 -66 -185 -32 -82 -63 -170 -70 -195 -8 -25 -30 -90 -50
-145 -20 -55 -60 -165 -87 -245 -60 -171 -76 -216 -118 -330 -18 -47 -40 -112
-50 -145 -23 -73 -44 -134 -104 -290 -25 -66 -46 -126 -46 -133 0 -7 -27 -84
-60 -172 -33 -87 -80 -217 -104 -287 -24 -70 -58 -166 -75 -213 -18 -47 -52
-143 -76 -215 -24 -71 -58 -168 -75 -215 -17 -47 -39 -107 -47 -135 -9 -27
-21 -66 -28 -85 -50 -139 -73 -195 -80 -195 -8 0 -78 185 -101 270 -8 28 -37
115 -65 195 -79 223 -84 237 -124 360 -20 63 -43 126 -50 140 -7 14 -27 75
-44 135 -18 61 -36 119 -41 130 -20 42 -119 327 -126 358 -6 31 -15 61 -25 82
-13 29 -64 172 -105 300 -20 61 -54 160 -75 220 -22 61 -56 160 -76 220 -19
61 -58 173 -85 250 -28 77 -61 175 -74 218 -13 43 -53 160 -88 260 -35 100
-80 229 -99 287 -20 58 -52 150 -73 205 -20 55 -40 116 -43 135 l-6 35 -1413
0 c-776 1 -1412 -1 -1412 -2 0 -12 48 -141 82 -222 22 -53 59 -148 83 -211 24
-63 69 -176 100 -250 31 -74 60 -148 65 -165 4 -16 26 -75 50 -130 46 -107 72
-172 96 -245 9 -25 24 -63 33 -85 35 -76 111 -266 111 -276 0 -5 27 -74 59
-152 85 -206 199 -491 228 -572 13 -38 43 -113 65 -165 22 -52 60 -147 83
-210 24 -63 69 -176 100 -250 31 -74 61 -148 65 -165 4 -16 37 -101 74 -188
36 -87 66 -162 66 -166 0 -4 30 -79 66 -167 36 -87 74 -184 84 -214 10 -30 50
-131 89 -225 39 -93 71 -176 71 -182 0 -7 11 -36 24 -65 34 -74 116 -276 116
-286 0 -10 42 -116 77 -191 24 -54 35 -82 68 -176 21 -59 37 -100 105 -260 28
-65 52 -128 54 -140 5 -22 48 -131 71 -180 18 -37 85 -212 85 -222 0 -4 31
-80 70 -170 39 -90 70 -168 70 -173 0 -6 18 -54 40 -107 23 -54 57 -141 76
-193 43 -114 84 -215 136 -334 21 -49 38 -93 38 -98 0 -12 44 -127 70 -183 10
-22 34 -80 53 -130 57 -146 54 -137 56 -155 1 -7 411 -9 1224 -8 l1222 3 35
105 c19 58 60 165 89 239 30 74 54 140 54 147 0 8 4 14 9 14 4 0 7 3 6 8 0 4
2 16 6 27 4 11 19 52 32 90 14 39 36 95 49 125 27 64 61 154 70 190 4 14 17
50 30 80 48 115 114 286 123 320 5 19 33 93 61 163 28 70 54 141 58 157 3 17
9 30 14 30 5 0 9 7 9 15 0 16 24 79 101 272 27 67 49 127 49 135 0 7 30 85 66
173 36 88 71 180 78 205 17 56 121 325 141 363 8 16 15 38 15 50 0 11 9 39 19
61 11 23 45 109 76 191 31 83 84 220 117 305 33 85 67 175 75 200 19 56 70
195 88 235 42 98 75 187 75 200 0 8 9 34 19 57 32 71 131 326 131 338 0 10 9
35 60 160 73 179 90 224 90 236 0 7 7 28 15 46 29 66 125 314 125 323 0 6 30
84 66 175 36 91 80 208 98 260 18 52 56 154 83 225 166 424 192 493 201 525 9
34 90 243 117 305 7 17 28 73 46 125 18 52 57 153 86 225 29 71 53 136 53 143
0 7 18 57 40 111 22 53 40 100 40 104 0 3 11 30 24 59 13 29 36 91 51 138 15
47 36 103 46 125 10 22 36 90 59 150 23 61 45 119 50 130 36 91 100 262 136
365 24 69 49 133 55 144 6 10 17 37 24 60 7 22 30 82 50 131 21 50 39 100 41
111 3 18 32 93 119 309 4 11 9 25 10 30 0 6 5 19 9 30 16 40 99 252 123 315
14 36 31 85 38 110 7 25 22 65 33 90 31 67 110 271 118 305 4 16 25 73 46 125
21 52 46 115 55 140 8 25 20 56 26 70 5 14 12 34 14 44 2 11 14 44 27 75 50
116 126 312 126 323 0 6 32 91 71 187 40 97 76 192 81 211 11 42 53 154 73
195 19 41 66 165 71 190 2 12 33 95 70 185 36 91 72 185 80 210 7 25 41 113
74 195 34 83 68 170 75 195 18 60 58 167 77 210 9 19 31 76 48 125 35 97 110
292 140 365 11 25 35 91 54 148 20 57 42 117 50 135 29 65 76 189 76 202 0 8
9 34 20 57 35 78 130 321 130 334 0 13 89 243 120 309 10 22 25 63 33 90 8 28
29 88 46 134 17 47 31 86 31 88 0 2 -625 3 -1389 3 l-1390 0 -41 -107z"/>
<path d="M13275 12553 c-96 -11 -260 -78 -345 -140 -59 -43 -119 -105 -169
-173 -64 -85 -86 -131 -119 -242 l-27 -93 -3 -3260 c-3 -3277 -2 -3421 33
-3710 29 -249 50 -342 133 -605 52 -162 60 -182 136 -343 25 -55 46 -101 46
-103 0 -8 103 -189 110 -194 4 -3 18 -25 30 -50 22 -43 210 -314 247 -356 10
-10 40 -46 68 -79 90 -108 367 -380 490 -481 218 -179 379 -290 610 -418 212
-117 448 -222 610 -271 44 -13 118 -35 165 -50 160 -50 315 -83 545 -116 230
-33 230 -33 630 -33 396 1 402 1 620 32 305 44 451 79 760 180 113 37 408 167
495 218 36 21 88 49 115 63 56 29 80 44 180 110 39 26 82 53 96 60 15 7 37 23
50 35 13 12 60 49 104 81 168 124 399 337 544 500 115 129 271 320 271 333 0
4 17 30 38 58 62 83 77 107 107 159 15 28 41 73 57 100 41 71 116 229 179 377
l54 128 6 -868 c4 -511 11 -890 17 -922 21 -117 132 -327 211 -400 123 -113
211 -168 343 -212 88 -30 101 -32 253 -32 155 -1 163 0 265 33 275 88 480 316
550 611 20 84 20 119 20 2920 0 3011 2 2876 -45 3015 -48 144 -192 334 -314
413 -85 55 -93 60 -141 82 -81 38 -152 52 -295 57 -177 7 -264 -9 -390 -72
-167 -83 -268 -175 -361 -332 -48 -81 -79 -159 -96 -245 -8 -45 -13 -308 -17
-928 l-6 -865 -32 80 c-49 123 -131 304 -165 365 -17 30 -45 80 -61 110 -53
98 -186 291 -296 431 -153 195 -418 457 -598 589 -81 60 -386 250 -402 250 -4
0 -75 33 -157 74 -82 40 -165 78 -184 84 -19 5 -82 30 -140 54 -58 24 -139 55
-180 67 -41 13 -115 36 -165 51 -206 65 -386 114 -455 125 -25 4 -94 17 -155
30 -291 63 -604 109 -820 122 -167 10 -774 10 -886 0 -416 -36 -732 -450 -670
-876 16 -105 30 -144 94 -261 61 -111 141 -197 245 -264 176 -114 208 -120
632 -117 195 1 386 -3 440 -9 199 -22 341 -43 515 -77 99 -19 203 -39 230 -43
172 -27 557 -156 760 -254 175 -85 283 -162 410 -291 133 -136 221 -249 307
-395 71 -120 82 -144 113 -227 107 -287 134 -414 142 -668 8 -269 -11 -423
-77 -630 -59 -185 -107 -298 -165 -390 -18 -27 -43 -70 -56 -95 -93 -170 -485
-555 -669 -655 -19 -11 -57 -34 -85 -51 -189 -118 -541 -241 -759 -264 -253
-28 -322 -32 -451 -27 -336 13 -506 48 -835 172 -196 73 -475 258 -681 452
-139 131 -348 408 -417 553 -91 195 -143 352 -169 510 -17 109 -18 281 -23
3490 l-5 3375 -27 82 c-15 45 -45 117 -68 160 -53 98 -172 230 -242 268 -29
15 -63 36 -76 46 -31 23 -161 66 -242 79 -61 9 -268 12 -335 3z"/>
<path d="M20860 11524 c-25 -2 -76 -8 -115 -14 -38 -5 -86 -12 -105 -14 -71
-9 -236 -81 -350 -154 -63 -40 -226 -192 -253 -235 -10 -15 -22 -34 -27 -40
-91 -112 -119 -178 -160 -372 -33 -152 -25 -307 23 -485 24 -85 44 -127 115
-233 76 -113 180 -217 301 -300 106 -73 125 -83 231 -119 300 -102 569 -97
848 15 138 56 258 136 362 241 113 116 161 186 224 330 109 247 90 579 -46
831 -35 64 -151 206 -214 260 -32 28 -66 58 -76 68 -10 9 -21 17 -24 17 -4 0
-32 17 -63 37 -85 57 -203 112 -250 119 -14 1 -34 7 -45 12 -38 18 -293 42
-376 36z"/>
<path d="M34580 9504 c-135 -20 -448 -64 -495 -70 -22 -3 -98 -13 -170 -24
-71 -11 -150 -20 -175 -21 -41 -1 -244 -27 -495 -64 -55 -8 -134 -19 -175 -24
-41 -6 -154 -22 -250 -35 -185 -27 -268 -37 -337 -41 -39 -2 -84 -9 -413 -56
-74 -10 -186 -26 -247 -34 -62 -8 -164 -22 -225 -31 -62 -8 -134 -15 -160 -15
-27 0 -48 -4 -48 -10 0 -5 -22 -9 -50 -9 -48 0 -90 -5 -435 -55 -93 -13 -242
-33 -330 -45 -88 -12 -203 -28 -255 -35 -52 -8 -102 -13 -110 -12 -18 2 -185
-18 -318 -39 -107 -17 -304 -44 -542 -75 -201 -25 -228 -38 -253 -121 -31 -97
-35 -91 336 -463 183 -183 509 -510 726 -728 l395 -396 -865 -863 c-740 -740
-4100 -4083 -4954 -4930 l-280 -278 -5899 0 -5899 0 -44 -25 c-23 -14 -50 -39
-58 -55 -9 -17 -13 -30 -11 -30 3 0 0 -14 -5 -32 -12 -43 20 -110 69 -143 l37
-25 5968 0 5968 0 77 74 c42 40 395 390 783 777 388 387 1561 1554 2605 2594
1045 1039 2118 2108 2387 2375 l487 485 0 74 0 74 -407 411 c-225 226 -526
529 -670 675 -145 145 -263 265 -263 266 0 1 28 5 63 9 61 7 265 34 592 81
284 41 456 63 530 69 39 4 86 8 105 11 77 9 274 37 430 60 250 37 526 73 610
79 68 6 134 15 455 61 55 8 156 22 225 30 69 9 168 23 220 31 52 9 138 20 190
25 52 5 112 11 133 13 49 5 241 31 447 61 393 56 457 65 635 81 39 3 73 8 77
10 3 2 28 7 55 10 26 3 75 9 107 14 33 5 62 8 64 5 2 -2 -3 -39 -12 -82 -27
-137 -60 -347 -58 -375 1 -16 -2 -28 -7 -28 -4 0 -11 -36 -14 -80 -4 -44 -16
-133 -27 -197 -11 -65 -29 -167 -40 -228 -11 -60 -27 -157 -35 -215 -23 -148
-23 -149 -29 -159 -3 -5 -8 -42 -11 -82 -4 -41 -15 -126 -26 -189 -11 -63 -24
-142 -29 -175 -9 -62 -61 -369 -79 -465 -6 -30 -13 -77 -16 -105 -11 -108 -15
-140 -71 -459 -14 -82 -28 -165 -30 -185 -3 -20 -11 -69 -20 -110 -8 -40 -17
-94 -20 -120 -17 -150 -23 -195 -37 -276 -9 -49 -23 -133 -32 -185 -8 -52 -20
-115 -25 -140 -6 -25 -12 -61 -14 -80 -13 -112 -136 -873 -143 -883 -3 -5
-310 295 -682 666 -640 639 -678 675 -716 679 -22 3 -56 1 -74 -3 -39 -9 -94
-64 -2067 -2053 -599 -604 -1444 -1457 -1879 -1895 -434 -438 -842 -849 -904
-914 l-115 -117 45 0 c75 1 180 19 264 47 80 26 264 114 288 137 6 6 39 34 72
62 33 27 173 164 310 303 263 266 1334 1346 2162 2180 857 865 1502 1516 1683
1701 96 98 178 179 182 179 4 1 88 -81 188 -181 648 -657 1258 -1266 1277
-1276 59 -32 161 -4 199 54 21 31 88 382 99 519 3 28 18 131 35 230 17 99 37
218 45 265 7 47 25 153 39 235 14 83 28 175 31 205 3 30 16 123 30 205 14 83
32 188 40 235 7 47 25 152 39 233 14 82 31 185 36 230 6 45 12 91 14 102 2 11
7 43 10 70 4 28 14 84 22 125 7 41 18 104 23 140 5 36 24 146 41 245 17 99 33
209 36 244 3 36 8 69 11 74 6 10 8 20 18 122 4 33 8 62 10 66 4 6 54 295 81
464 7 50 18 112 23 139 5 27 7 55 4 63 -3 7 0 19 6 27 6 7 8 16 5 19 -4 3 -3
14 1 24 4 10 9 36 11 58 4 39 36 233 74 450 11 61 27 155 35 210 9 55 18 114
21 130 3 17 9 64 14 105 5 41 15 107 21 146 11 67 10 74 -12 123 -19 40 -33
56 -65 71 -46 23 -63 23 -194 4z"/>
<path d="M9250 7174 c-94 -25 -153 -60 -223 -133 -73 -75 -110 -144 -127 -231
-24 -125 -2 -281 49 -359 16 -24 57 -72 90 -106 47 -49 77 -70 138 -96 l78
-34 950 -2 950 -3 77 28 c140 49 238 143 294 282 53 132 49 257 -11 385 -64
133 -163 220 -297 261 l-82 24 -915 -1 c-770 0 -925 -3 -971 -15z"/>
</g>
</svg>
