<?xml version="1.0" standalone="no"?>
<!DOCTYPE svg PUBLIC "-//W3C//DTD SVG 20010904//EN"
 "http://www.w3.org/TR/2001/REC-SVG-20010904/DTD/svg10.dtd">
<svg version="1.0" xmlns="http://www.w3.org/2000/svg"
 width="177.000000pt" height="79.000000pt" viewBox="0 0 177.000000 79.000000"
 preserveAspectRatio="xMidYMid meet">

<g transform="translate(0.000000,79.000000) scale(0.100000,-0.100000)"
fill="#000000" stroke="none">
<path d="M329 487 c-53 -149 -100 -272 -104 -272 -4 0 -22 40 -39 90 l-31 90
-62 3 c-35 2 -63 -1 -63 -5 -1 -4 30 -86 67 -181 l68 -173 59 3 58 3 128 335
c70 184 130 345 134 358 7 21 5 22 -56 22 l-63 0 -96 -273z"/>
<path d="M642 608 c-15 -15 -17 -335 -2 -388 5 -20 24 -50 42 -67 87 -84 203
-83 285 3 l42 43 3 -46 c3 -53 26 -76 56 -57 15 10 17 32 20 172 2 153 1 162
-18 172 -36 19 -60 -3 -60 -58 l0 -47 -30 37 c-62 75 -240 104 -240 40 0 -28
21 -42 62 -42 49 0 103 -22 117 -48 6 -12 11 -37 11 -57 0 -88 -112 -128 -182
-66 l-33 29 -5 194 -5 193 -25 3 c-14 2 -31 -3 -38 -10z"/>
<path d="M1018 559 c-21 -12 -24 -49 -6 -67 22 -22 67 -14 80 13 9 21 8 28 -7
45 -20 22 -41 25 -67 9z"/>
<path d="M1716 462 c6 -4 14 -14 17 -22 4 -10 6 -8 6 8 1 15 -5 22 -16 22 -11
0 -14 -3 -7 -8z"/>
<path d="M1643 453 c9 -2 23 -2 30 0 6 3 -1 5 -18 5 -16 0 -22 -2 -12 -5z"/>
<path d="M1563 443 c9 -2 23 -2 30 0 6 3 -1 5 -18 5 -16 0 -22 -2 -12 -5z"/>
<path d="M1474 429 c-3 -6 9 -26 27 -45 l33 -34 -99 -103 -100 -102 105 102
104 103 -32 33 c-38 39 -39 44 -9 50 22 4 22 4 0 6 -12 0 -25 -4 -29 -10z"/>
<path d="M1722 390 c0 -14 2 -19 5 -12 2 6 2 18 0 25 -3 6 -5 1 -5 -13z"/>
<path d="M457 353 c-4 -3 -7 -15 -7 -25 0 -15 8 -18 59 -18 63 0 81 11 61 35
-13 15 -100 21 -113 8z"/>
<path d="M1711 324 c0 -11 3 -14 6 -6 3 7 2 16 -1 19 -3 4 -6 -2 -5 -13z"/>
<path d="M1500 162 l-115 -117 115 113 116 113 24 -27 c31 -32 60 -49 60 -34
0 5 -5 10 -12 10 -7 0 -26 13 -43 30 l-31 30 -114 -118z"/>
<path d="M1702 260 c0 -14 2 -19 5 -12 2 6 2 18 0 25 -3 6 -5 1 -5 -13z"/>
<path d="M1240 65 c-10 -12 -61 -15 -309 -18 l-296 -2 296 -3 c285 -2 297 -1
314 18 10 11 16 20 13 20 -3 0 -11 -7 -18 -15z"/>
</g>
</svg>
