<?xml version="1.0" standalone="no"?>
<!DOCTYPE svg PUBLIC "-//W3C//DTD SVG 20010904//EN"
 "http://www.w3.org/TR/2001/REC-SVG-20010904/DTD/svg10.dtd">
<svg version="1.0" xmlns="http://www.w3.org/2000/svg"
 width="354.000000pt" height="159.000000pt" viewBox="0 0 354.000000 159.000000"
 preserveAspectRatio="xMidYMid meet">

<g transform="translate(0.000000,159.000000) scale(0.100000,-0.100000)"
fill="#000000" stroke="none">
<path d="M651 980 c-107 -303 -198 -550 -201 -550 -4 0 -36 83 -71 185 l-62
185 -138 0 -138 0 33 -82 c18 -46 82 -208 142 -360 l109 -278 121 0 121 0 272
718 c149 395 271 721 271 725 0 4 -60 7 -132 7 l-133 0 -194 -550z"/>
<path d="M1293 1236 l-28 -24 0 -374 0 -373 27 -57 c107 -228 409 -296 610
-136 23 18 58 59 80 92 l38 59 0 -94 c1 -101 8 -121 53 -138 31 -12 53 -6 85
22 22 20 22 22 22 323 0 166 -3 310 -6 319 -10 25 -62 47 -94 40 -46 -10 -55
-30 -60 -134 l-5 -96 -27 46 c-55 93 -146 148 -290 175 -147 28 -218 6 -218
-67 0 -41 32 -69 78 -69 63 0 165 -20 208 -41 110 -52 135 -200 51 -295 -50
-58 -98 -77 -183 -72 -62 3 -79 8 -116 35 -23 17 -53 50 -65 74 -23 41 -23 48
-23 390 0 234 -4 356 -11 372 -22 49 -83 60 -126 23z"/>
<path d="M2041 1136 c-76 -42 -61 -151 24 -175 87 -23 165 64 125 140 -23 43
-101 61 -149 35z"/>
<path d="M3188 912 c-156 -21 -268 -40 -268 -46 0 -6 33 -43 72 -83 l73 -73
-305 -305 -305 -305 -597 0 c-392 0 -598 -3 -598 -10 0 -7 208 -10 603 -10
l602 0 315 315 315 315 -70 70 c-38 38 -67 72 -64 74 8 8 488 70 494 64 5 -5
-60 -445 -71 -477 -3 -10 -28 8 -77 57 l-72 72 -245 -245 c-135 -135 -238
-245 -230 -245 8 0 118 103 245 230 l230 230 77 -77 c43 -42 80 -75 82 -72 5
4 81 464 89 534 1 11 -4 20 -13 21 -8 1 -135 -14 -282 -34z"/>
<path d="M906 704 c-21 -21 -20 -47 2 -67 15 -13 39 -17 115 -17 84 0 100 3
117 20 24 24 24 29 4 58 -14 20 -23 22 -119 22 -81 0 -107 -3 -119 -16z"/>
</g>
</svg>
