<?xml version="1.0" standalone="no"?>
<!DOCTYPE svg PUBLIC "-//W3C//DTD SVG 20010904//EN"
 "http://www.w3.org/TR/2001/REC-SVG-20010904/DTD/svg10.dtd">
<svg version="1.0" xmlns="http://www.w3.org/2000/svg"
 width="35.000000pt" height="16.000000pt" viewBox="0 0 35.000000 16.000000"
 preserveAspectRatio="xMidYMid meet">

<g transform="translate(0.000000,16.000000) scale(0.100000,-0.100000)"
fill="#000000" stroke="none">
<path d="M81 129 c-34 -90 -37 -95 -45 -71 -4 12 -12 22 -18 22 -6 0 -7 -7 -3
-17 4 -10 10 -26 12 -36 3 -10 10 -16 16 -14 12 4 60 127 53 135 -3 2 -10 -6
-15 -19z"/>
<path d="M134 75 l1 -50 40 0 c37 1 40 3 40 29 0 25 -4 29 -35 32 l-35 4 23
-18 c19 -15 21 -20 10 -30 -21 -17 -36 -1 -41 43 -3 33 -4 31 -3 -10z"/>
</g>
</svg>
